<svg width="199" height="46" viewBox="0 0 199 46" fill="none" xmlns="http://www.w3.org/2000/svg">
<path d="M6.74612 32.8136C13.4819 38.978 23.265 39.5158 28.8712 33.9095C33.4745 29.3062 34.0885 25.3617 36.1224 12.2921C36.6378 8.98026 37.2698 4.91999 38.0807 0.144531C33.7168 0.886867 30.0541 1.46777 26.7908 1.98532C12.8894 4.19012 9.15319 4.78265 4.44867 9.48717C-1.12073 15.0566 -0.570707 24.8049 5.55048 31.6064L9.36631 27.7905C5.72215 23.529 5.92127 17.084 9.96333 13.0419C14.2083 8.79689 21.1057 8.78704 25.3385 13.0198C29.5715 17.2527 29.5615 24.1501 25.3165 28.3951C21.2744 32.4371 14.8295 32.6363 10.5679 28.9921L6.74612 32.8136ZM24.1149 27.1933C27.6955 23.6127 27.7039 17.795 24.1336 14.2246C20.5632 10.6543 14.7456 10.6626 11.1649 14.2433C7.78759 17.6206 7.59001 22.9875 10.5744 26.5822L15.1938 21.9629C14.9978 21.5793 14.8927 21.1527 14.8934 20.7092C14.8943 19.9718 15.1823 19.2783 15.7043 18.7562C16.2263 18.234 16.92 17.9461 17.6569 17.9453C18.3941 17.9438 19.087 18.2298 19.6077 18.7505C20.1282 19.271 20.4142 19.9638 20.4132 20.701C20.4122 21.4383 20.1242 22.1317 19.6021 22.6538C19.0801 23.1757 18.3866 23.4639 17.649 23.4649C17.2055 23.4655 16.7789 23.3602 16.3953 23.1644L11.776 27.7838C15.3707 30.7682 20.7376 30.5706 24.1149 27.1933ZM18.4005 21.4522C18.6007 21.2521 18.7112 20.9862 18.7115 20.7033C18.712 20.4206 18.6023 20.155 18.4028 19.9554C18.2032 19.7559 17.9379 19.6463 17.6548 19.6468C17.3721 19.6471 17.1061 19.7575 16.9061 19.9575C16.706 20.1577 16.5955 20.4236 16.5952 20.7066C16.5948 20.989 16.7044 21.2545 16.9039 21.4539C17.1035 21.6536 17.3691 21.7633 17.6517 21.7629C17.9344 21.7629 18.2003 21.6524 18.4005 21.4522Z" fill="#100A59"/>
<path d="M80.1991 7.14292V35.0629H74.5991V16.9029L67.1191 35.0629H62.8791L55.3591 16.9029V35.0629H49.7591V7.14292H56.1191L64.9991 27.9029L73.8791 7.14292H80.1991Z" fill="#B07E5B"/>
<path d="M106.936 12.9029L93.2156 45.5429H87.2556L92.0556 34.5029L83.1756 12.9029H89.4556L95.1756 28.3829L100.976 12.9029H106.936Z" fill="#B07E5B"/>
<path d="M138.926 15.5429C138.286 14.3696 137.406 13.4763 136.286 12.8629C135.166 12.2496 133.859 11.9429 132.366 11.9429C130.712 11.9429 129.246 12.3163 127.966 13.0629C126.686 13.8096 125.686 14.8763 124.966 16.2629C124.246 17.6496 123.886 19.2496 123.886 21.0629C123.886 22.9296 124.246 24.5563 124.966 25.9429C125.712 27.3296 126.739 28.3963 128.046 29.1429C129.352 29.8896 130.872 30.2629 132.606 30.2629C134.739 30.2629 136.486 29.7029 137.846 28.5829C139.206 27.4363 140.099 25.8496 140.526 23.8229H130.926V19.5429H146.046V24.4229C145.672 26.3696 144.872 28.1696 143.646 29.8229C142.419 31.4763 140.832 32.8096 138.886 33.8229C136.966 34.8096 134.806 35.3029 132.406 35.3029C129.712 35.3029 127.272 34.7029 125.086 33.5029C122.926 32.2763 121.219 30.5829 119.966 28.4229C118.739 26.2629 118.126 23.8096 118.126 21.0629C118.126 18.3163 118.739 15.8629 119.966 13.7029C121.219 11.5162 122.926 9.82292 125.086 8.62292C127.272 7.39625 129.699 6.78292 132.366 6.78292C135.512 6.78292 138.246 7.55625 140.566 9.10292C142.886 10.6229 144.486 12.7696 145.366 15.5429H138.926Z" fill="#B07E5B"/>
<path d="M153.029 10.2629C152.042 10.2629 151.215 9.95625 150.549 9.34292C149.909 8.70292 149.589 7.91625 149.589 6.98292C149.589 6.04958 149.909 5.27625 150.549 4.66292C151.215 4.02292 152.042 3.70292 153.029 3.70292C154.015 3.70292 154.829 4.02292 155.469 4.66292C156.135 5.27625 156.469 6.04958 156.469 6.98292C156.469 7.91625 156.135 8.70292 155.469 9.34292C154.829 9.95625 154.015 10.2629 153.029 10.2629ZM155.789 12.9029V35.0629H150.189V12.9029H155.789Z" fill="#B07E5B"/>
<path d="M167.842 17.5029V28.2229C167.842 28.9696 168.015 29.5163 168.362 29.8629C168.735 30.1829 169.348 30.3429 170.202 30.3429H172.802V35.0629H169.282C164.562 35.0629 162.202 32.7696 162.202 28.1829V17.5029H159.562V12.9029H162.202V7.42292H167.842V12.9029H172.802V17.5029H167.842Z" fill="#B07E5B"/>
<path d="M175.389 23.9029C175.389 21.6629 175.829 19.6763 176.709 17.9429C177.616 16.2096 178.829 14.8763 180.349 13.9429C181.896 13.0096 183.616 12.5429 185.509 12.5429C187.163 12.5429 188.603 12.8763 189.829 13.5429C191.083 14.2096 192.083 15.0496 192.829 16.0629V12.9029H198.469V35.0629H192.829V31.8229C192.109 32.8629 191.109 33.7296 189.829 34.4229C188.576 35.0896 187.123 35.4229 185.469 35.4229C183.603 35.4229 181.896 34.9429 180.349 33.9829C178.829 33.0229 177.616 31.6763 176.709 29.9429C175.829 28.1829 175.389 26.1696 175.389 23.9029ZM192.829 23.9829C192.829 22.6229 192.563 21.4629 192.029 20.5029C191.496 19.5163 190.776 18.7696 189.869 18.2629C188.963 17.7296 187.989 17.4629 186.949 17.4629C185.909 17.4629 184.949 17.7163 184.069 18.2229C183.189 18.7296 182.469 19.4763 181.909 20.4629C181.376 21.4229 181.109 22.5696 181.109 23.9029C181.109 25.2363 181.376 26.4096 181.909 27.4229C182.469 28.4096 183.189 29.1696 184.069 29.7029C184.976 30.2363 185.936 30.5029 186.949 30.5029C187.989 30.5029 188.963 30.2496 189.869 29.7429C190.776 29.2096 191.496 28.4629 192.029 27.5029C192.563 26.5163 192.829 25.3429 192.829 23.9829Z" fill="#B07E5B"/>
</svg>
